# xmcd
#
# Track frame offsets:
#	150
#	12228
#	23607
#	38140
#	52492
#	66336
#	78928
#	91806
#	105518
#	126527
#	138753
#	149019
#	156252
#	169565
#	176300
#
# Disc length: 2500 seconds
#
# Revision: 1
# Processed by: cddbd v1.5.2PL0 Copyright (c) Steve Scherf et al.
# Submitted via: audiograbber 1.83.01
#
DISCID=c609c20f
DTITLE=Bo Diddley - 6 Classic Albums Plus Bonus Singles, Sessions and Live Tracks
DTITLE=[CD4)
DYEAR=1900
DGENRE=Rock
TTITLE0=Bo Diddley - Shes Fine - Shes Fine
TTITLE1=Bo Diddley - I'm Looking For A Woman
TTITLE2=Bo Diddley - I'm Bad
TTITLE3=Bo Diddley - Down Home Special
TTITLE4=Bo Diddley - Bo Meets The Monster
TTITLE5=Bo Diddley - Pills
TTITLE6=Little Walter And His Jukes - Roller Coaster
TTITLE7=Little Walter And His Jukes - Hate To See You Go
TTITLE8=Billy Stewart - Billys Blues part 1 and 2
TTITLE9=Billy Stewart - Baby You're My Only Love
TTITLE10=The Marquees - Hey Little Schoolgirl
TTITLE11=Bo Diddley Live - Hey Bo Diddley
TTITLE12=Bo Diddley Live - Give Me A Break- You Can't Judge A Book By It's Cove
TTITLE12=r
TTITLE13=Bo Diddley Live - Roadrunner
TTITLE14=Bo Diddley Live - Let Me Pass
EXTD=
EXTT0=
EXTT1=
EXTT2=
EXTT3=
EXTT4=
EXTT5=
EXTT6=
EXTT7=
EXTT8=
EXTT9=
EXTT10=
EXTT11=
EXTT12=
EXTT13=
EXTT14=
PLAYORDER=
